<svg width="38" height="48" viewBox="0 0 38 48" fill="none" xmlns="http://www.w3.org/2000/svg">
<g clip-path="url(#clip0_842_2073)">
<path d="M38.0004 33.8032C38.0004 46.0733 28.7859 48 26.0824 48H2.40621C1.34238 48 0.478516 47.1294 0.478516 46.0571V2.41858C0.478516 1.3383 1.34238 0.467623 2.40621 0.467623H20.1153C20.1153 0.467623 32.4333 -0.30631 32.4333 12.3991C32.4333 12.3991 32.7773 17.5828 29.6258 20.8479C29.4018 21.0817 29.1619 21.2993 28.9059 21.5089C28.618 21.7427 28.306 21.9604 27.9701 22.1619C27.9701 22.1619 28.434 22.2829 29.1619 22.565C29.1859 22.5731 29.2179 22.5892 29.2419 22.5973C31.9454 23.6614 38.0004 26.8297 38.0004 33.8032Z" fill="url(#paint0_linear_842_2073)"/>
<path d="M38.0004 33.8032C38.0004 46.0733 28.7859 48 26.0824 48H2.40621C1.34238 48 0.478516 47.1294 0.478516 46.0571V2.41858C0.478516 1.3383 1.34238 0.467623 2.40621 0.467623H20.1153C20.1153 0.467623 32.4333 -0.30631 32.4333 12.3991C32.4333 12.3991 32.7773 17.5828 29.6258 20.8479C29.4018 21.0817 29.1619 21.2993 28.9059 21.5089C28.618 21.7427 28.306 21.9604 27.9701 22.1619C27.9701 22.1619 28.434 22.2829 29.1619 22.565C29.1859 22.5731 29.2179 22.5892 29.2419 22.5973C31.9454 23.6614 38.0004 26.8297 38.0004 33.8032Z" fill="url(#paint1_linear_842_2073)"/>
<path d="M29.1608 22.5653L24.2576 23.0974L27.0731 31.5543L24.7455 31.6591L19.5463 24.2583C19.5463 24.2583 18.8105 23.1136 17.4987 22.9604C16.3868 22.8394 13.4193 22.9281 12.5155 22.9443C12.3235 22.9604 12.1315 22.912 11.9556 22.8153C11.5876 22.6057 11.0117 22.1945 11.0117 21.5899C11.0117 20.8724 11.7636 20.429 12.1395 20.2516C12.2595 20.1871 12.3955 20.1629 12.5315 20.1629L17.3147 20.0984C17.9546 20.0662 18.5465 19.7357 18.9144 19.2116L24.8175 10.787L26.7772 10.5049L24.0816 19.8001C24.0816 19.8001 27.0331 20.3887 29.6247 20.8482C29.4007 21.082 29.1608 21.2996 28.9048 21.5093C28.6169 21.743 28.3049 21.9607 27.969 22.1623C27.969 22.1623 28.4329 22.2832 29.1608 22.5653Z" fill="white"/>
</g>
<defs>
<linearGradient id="paint0_linear_842_2073" x1="0.481395" y1="24.2304" x2="38.0034" y2="24.2304" gradientUnits="userSpaceOnUse">
<stop stop-color="#1D91CC"/>
<stop offset="0.7728" stop-color="#5091FD"/>
<stop offset="1" stop-color="#6894FD"/>
</linearGradient>
<linearGradient id="paint1_linear_842_2073" x1="0.481395" y1="24.2304" x2="38.0034" y2="24.2304" gradientUnits="userSpaceOnUse">
<stop stop-color="#1D91CC"/>
<stop offset="0.0001" stop-color="#1D91CC"/>
<stop offset="0.71875" stop-color="#50B2E4"/>
<stop offset="1" stop-color="#53A2FF"/>
</linearGradient>
<clipPath id="clip0_842_2073">
<rect width="38" height="48" fill="white"/>
</clipPath>
</defs>
</svg>
